<svg width="1579" height="1231" viewBox="0 0 1579 1231" fill="none" xmlns="http://www.w3.org/2000/svg">
<path d="M210.667 1.99993C112 14.5333 31.4666 85.6 7.19996 181.467C-0.266702 211.333 -3.55178e-05 188.8 -3.55178e-05 611.733C-3.55178e-05 876.8 0.399965 1005.6 1.46663 1014.4C6.66663 1062.27 24.1333 1104.8 53.6 1141.47C90.4 1187.33 141.2 1216.53 204.4 1228.27C216.133 1230.4 1336 1231.47 1360 1229.33C1392 1226.53 1415.47 1219.73 1446 1204.67C1470 1192.8 1486.53 1181.2 1504.8 1163.6C1536.53 1133.2 1558.8 1096.13 1570.13 1054.93C1579.33 1021.2 1578.8 1051.47 1578.27 609.333C1577.87 169.2 1578.53 206 1569.87 175.333C1543.47 81.3333 1464.13 13.7333 1366.67 1.99993C1344.27 -0.800072 232 -0.666739 210.667 1.99993ZM1325.73 74.6666C1357.6 76.9333 1380.4 81.9999 1403.33 92.2666C1439.47 108.4 1470.67 138.667 1488.93 175.333C1500.4 198 1506.27 221.333 1508 250.667C1509.6 276 1509.6 981.067 1508 1008C1505.2 1056.4 1492.93 1087.33 1464.93 1115.87C1440.13 1141.33 1413.33 1155.87 1377.33 1163.6C1366.53 1165.87 1340.93 1166 790.667 1166C330.133 1166 213.6 1165.6 206.4 1164.27C169.867 1157.33 139.733 1141.73 116 1117.47C90.5333 1091.33 76 1058.93 72 1018.93C70.9333 1008.93 70.6666 890 70.9333 619.333L71.4666 234L74.2666 221.6C78.5333 203.067 82.2666 192.933 90.9333 175.333C101.333 154.4 109.867 142.4 123.067 129.733C154.133 100.133 187.067 84.6666 235.333 77.0666C243.6 75.8666 340.133 75.3333 664.667 74.6666C894.933 74.2666 1133.47 73.8666 1194.67 73.7333C1259.07 73.4666 1314.27 73.9999 1325.73 74.6666Z" fill="url(#paint0_linear_9_3)"/>
<path d="M233.867 133.333C192.133 137.467 163.6 149.333 141.067 172.133C122.667 190.933 111.467 222.8 114 250C116.933 281.6 127.333 301.333 150.4 318.533C166.533 330.667 183.333 337.867 229.067 352.133C275.6 366.667 284.667 372.4 284.667 387.733C284.667 394.133 284.267 395.333 280.4 398.667C271.867 406.4 246.4 410.533 222.933 408.133C190.933 404.8 148.4 394 119.867 382.133C116.133 380.533 114.8 387.6 112.667 419.867C111.6 436.4 110.533 452.8 110.267 456.267L109.733 462.4L119.867 466.4C171.067 486.533 258.133 492.533 309.867 479.467C364.8 465.467 394.8 429.867 394.933 378.8C394.933 356.267 390.533 340.267 378.533 319.2C364.533 294.533 356.8 290.267 294 271.333C245.333 256.667 236.4 252.933 232.133 245.333C227.2 236.4 228.8 229.333 236.8 226C244.533 222.8 260.533 220 271.2 220C292.267 220 330.4 226.933 360.133 236C367.2 238.267 373.6 240 374.267 240C375.467 240 378.933 204.267 380.8 172C381.467 160.933 381.333 157.6 379.867 156.533C378.8 155.733 370.667 152.533 361.733 149.6C322.133 136.267 270.533 129.733 233.867 133.333Z" fill="url(#paint1_linear_9_3)"/>
<path d="M720.267 144.933C718.533 145.333 715.6 147.867 713.6 150.667C711.6 153.6 706.933 160.267 703.2 165.6C699.6 170.933 684.8 192.133 670.533 212.667L644.667 249.867L643.867 214C643.333 194.133 642.933 170.667 642.8 161.6L642.667 145.333H593.333H544V290.667V435.867L547.733 435.333C560.667 433.2 612.667 425.067 625.733 423.2L641.333 420.933L641.467 409.467C641.6 403.2 642 384.4 642.533 367.733L643.333 337.333L659.6 364.4C668.533 379.2 677.067 394.533 678.667 398.533C682.4 408.267 686 412.933 691.733 415.867C699.733 419.867 703.867 420.267 730.933 418.8C745.067 418 766.667 417.067 779.067 416.533C791.333 416 801.333 415.2 801.333 414.667C801.333 414.133 786.8 391.467 769.067 364.533C726.933 300.133 722.667 293.333 722.667 290.667C722.667 289.467 729.333 279.467 737.6 268.533C745.867 257.6 758.533 240.267 765.733 230C773.067 219.733 786.933 200.667 796.533 187.6C815.733 161.733 825.333 148 825.333 146.667C825.333 144.933 728.667 143.333 720.267 144.933Z" fill="url(#paint2_linear_9_3)"/>
<path d="M416 304.667V464H419.067C420.8 464 432.4 461.067 444.8 457.467C457.2 453.867 477.333 448.667 489.733 445.867L512 440.933V293.067V145.333H464H416V304.667Z" fill="url(#paint3_linear_9_3)"/>
<path d="M1028 150.267C1024 151.067 1019.07 155.333 1017.87 159.2C1017.33 160.667 1007.33 175.6 995.467 192.267C983.733 208.933 968.8 230.133 962.533 239.2L951.067 255.867L950.133 247.733C949.733 243.333 949.333 219.6 949.333 195.2V150.667H900.667H852L851.867 191.6C851.733 214.267 851.333 275.2 850.8 327.333L850 422L846.667 428.667C843.6 434.933 842.667 435.6 832.667 439.867L822 444.533L778 445.467C735.467 446.4 722.8 447.2 676 451.333C577.867 460.133 511.733 478 461.2 509.333C426.4 530.933 395.2 564.533 374.267 602.933C367.867 614.933 358.533 636.533 353.2 652C350.8 658.933 348.8 664.8 348.667 664.933C348.533 665.2 341.733 666.133 333.333 667.333C245.333 678.8 179.733 708.933 147.067 752.533C128.667 777.333 116.8 810.933 112 852C109.733 871.2 108.8 949.2 110.4 975.333C111.2 987.733 112.8 1002.13 114 1007.2C121.6 1039.87 142 1062.53 170.267 1069.87C180.667 1072.67 203.067 1072.67 213.333 1070C250.133 1060.4 283.6 1033.47 314.667 988.4C319.333 981.6 323.333 976.267 323.467 976.4C323.733 976.667 324.533 982.4 325.333 989.333C329.733 1026.8 339.733 1049.73 359.067 1067.47C372.4 1079.6 385.867 1086.93 406.133 1092.93C413.467 1095.2 431.2 1095.33 696.667 1096C852.133 1096.4 986.8 1096.27 995.733 1095.73C1020 1094.13 1039.07 1089.07 1057.07 1079.2C1061.6 1076.67 1067.07 1074.67 1069.2 1074.67C1071.33 1074.67 1079.2 1077.6 1086.8 1081.2C1116.8 1095.6 1153.33 1101.73 1180.8 1097.33C1200.27 1094.13 1226.4 1082.93 1238 1072.93C1249.33 1062.93 1248.93 1062.93 1261.2 1071.2C1285.33 1087.33 1315.6 1096 1347.87 1096C1377.2 1096 1404 1089.33 1423.73 1077.33C1436.4 1069.47 1453.73 1051.6 1460 1039.87C1468.67 1023.47 1468.4 1027.87 1468.93 879.467C1469.47 751.733 1469.33 744.933 1467.07 742.4C1463.47 738.4 1456.67 739.6 1422.67 750.533C1349.73 774.133 1336.53 779.333 1331.33 786.4C1328.67 789.867 1328.67 791.733 1329.2 870.667C1329.73 958.4 1329.47 963.6 1322.93 970.933C1319.73 974.267 1318.4 974.933 1312 974.933C1302.13 975.2 1299.2 974 1297.2 968.933C1295.47 964.4 1293.73 902.533 1293.47 835.467L1293.33 800.933L1281.47 801.733C1271.73 802.4 1265.6 804 1247.2 810.533C1209.47 823.867 1188 831.867 1175.07 837.6L1162.67 842.933V901.2C1162.67 955.333 1162.4 959.733 1160.13 964.933C1158.67 968 1156 971.467 1154.13 972.667C1150.13 975.333 1136.93 975.733 1134 973.333C1130.13 970.133 1129.33 961.2 1128.13 908.133C1127.47 878.667 1126.53 854.133 1126.13 853.733C1124.27 851.867 1097.73 860.533 1021.07 888.267L1017.47 889.6L1017.07 924.4C1016.67 956.667 1016.4 959.733 1013.87 964.667C1010.27 971.733 1002.8 974.267 982 975.467C966.8 976.4 966.267 976.267 967.2 973.867C970.4 966.133 974.8 944.4 976 931.867C977.867 910.533 975.6 877.333 971.333 861.333C961.067 823.6 943.6 793.867 920 774.133C899.733 757.2 879.867 746.133 855.333 738.267C823.067 727.867 797.733 725.867 681.333 724.667C639.867 724.267 603.733 723.6 601.067 723.2C598.133 722.8 596 721.733 596 720.667C596 718.267 606.533 708.933 616.4 702.533C643.733 684.667 686.533 670.8 735.333 664C783.333 657.333 783.467 657.333 1072 655.867C1369.6 654.533 1359.73 654.8 1384.67 646.533C1399.47 641.6 1417.47 632.133 1425.87 625.067C1438 614.667 1453.73 592.533 1460.8 575.733C1464.93 565.733 1469.33 549.2 1469.33 543.067V538.667H1203.07C950.267 538.667 890 539.333 840.667 542.667C761.2 548.133 670.8 567.067 614.667 590.267C595.733 598 564.4 614.667 547.467 625.867C500.133 657.067 473.467 704.267 466.667 768.133C466 775.067 465.333 795.867 465.333 814.267V848H488.4C568 848.133 763.867 850.8 776.8 852C805.067 854.667 823.067 861.067 836.133 873.067C844.533 880.8 852.133 893.733 855.333 906.133C858 916.267 857.867 933.2 855.2 942.8C852 954.267 847.467 958.8 833.067 965.067C809.6 975.333 823.733 974.667 639.867 974.667C481.467 974.667 474.533 974.533 466.8 972.133C454.533 968.267 450.4 964.533 445.333 952.4C441.067 942.4 440.933 941.2 439.867 916C438.4 879.2 438.4 805.333 440 784C444.133 727.333 456.667 687.6 480.533 655.867C497.733 633.067 539.467 597.467 565.333 583.6C616.667 556 672 542.533 792.667 528.667C851.733 521.867 887.067 514.133 907.333 503.6C917.467 498.267 930.133 485.6 935.467 475.333C937.867 470.933 941.733 461.333 944 454L948.4 440.667L949.467 394C950 368.267 950.533 347.067 950.533 346.667C950.667 346.267 954.133 352 958.533 359.333C962.8 366.667 977.467 391.2 991.2 413.733C1004.8 436.4 1016 455.6 1016 456.267C1016 457.067 1017.73 460.533 1020 464C1027.2 475.333 1022.8 474.8 1110.4 473.333C1152.67 472.667 1193.2 472 1200.27 472H1213.2L1217.33 458.933C1219.6 451.867 1222.67 440.4 1224.4 433.6L1227.33 421.333H1284.67H1342.13L1344.27 428.267C1345.47 432.133 1349.87 443.6 1354 453.6L1361.6 472H1414.8H1468V468.667C1468 466.8 1463.73 454.933 1458.53 442.267C1453.47 429.6 1427.6 365.333 1401.2 299.333C1374.8 233.333 1350.4 172.933 1347.07 164.933L1341.07 150.667H1280H1218.93L1203.33 198.267C1194.67 224.533 1185.07 253.467 1181.87 262.667C1169.2 299.2 1125.07 433.867 1124.4 438.133C1124 440.667 1122.93 442.667 1121.87 442.667C1120.8 442.667 1120 442.133 1120 441.467C1120 440.933 1113.87 430.8 1106.53 419.2C1050.93 332.133 1036.4 309.067 1032.8 302.4L1028.67 294.8L1032.13 291.067C1034.13 289.067 1052.93 263.333 1074 234C1095.07 204.667 1114.27 178.267 1116.67 175.333C1121.33 169.467 1133.47 151.6 1132.93 151.2C1132.13 150.667 1030.93 149.733 1028 150.267ZM1305.07 285.067C1316.93 315.067 1326.67 340.267 1326.67 341.067C1326.67 342.267 1316.53 342.667 1286.8 342.667C1264.8 342.667 1246.53 342.267 1246.27 341.6C1245.33 340 1280.53 230.667 1282 230.667C1282.8 230.667 1293.07 255.2 1305.07 285.067ZM315.2 790.133C316.4 791.2 317.733 793.733 318.267 795.733C318.933 797.733 319.333 821.067 319.333 847.6V895.867L316.267 898.933L313.2 902L258 902.4C219.2 902.667 201.867 902.267 199.867 901.333C195.6 899.067 193.333 891.867 193.333 880.933C193.333 856.267 205.467 836.533 229.2 822.8C251.2 809.867 301.2 788.133 308.933 788C311.2 788 314.133 788.933 315.2 790.133Z" fill="url(#paint4_linear_9_3)"/>
<path d="M168 536.4C158.933 539.333 153.6 547.067 136.133 582.267C118.667 617.733 118.133 619.467 123.867 625.2C127.333 628.667 143.733 629.733 182.133 629.067C215.467 628.533 218.4 627.867 223.733 620.4C225.2 618.267 231.067 606.667 236.8 594.4C242.533 582.133 247.333 572.267 247.6 572.533C247.733 572.667 244.933 582.4 241.333 594.133C233.2 619.733 232.667 623.867 237.333 626.267C241.867 628.533 310 628.667 317.733 626.4C328.933 623.067 333.467 615.6 350.667 573.2C359.733 550.667 360 548.533 354.133 541.733L350.933 538L320.4 537.2C252 535.2 172.8 534.8 168 536.4Z" fill="url(#paint5_linear_9_3)"/>
<defs>
<linearGradient id="paint0_linear_9_3" x1="1666.5" y1="653" x2="-756.5" y2="648" gradientUnits="userSpaceOnUse">
<stop stop-color="#258DFF"/>
<stop offset="1" stop-color="#02F6FC"/>
</linearGradient>
<linearGradient id="paint1_linear_9_3" x1="410.83" y1="320.244" x2="-26.9488" y2="319.677" gradientUnits="userSpaceOnUse">
<stop stop-color="#258DFF"/>
<stop offset="1" stop-color="#02F6FC"/>
</linearGradient>
<linearGradient id="paint2_linear_9_3" x1="841.014" y1="299.022" x2="409.171" y2="298.352" gradientUnits="userSpaceOnUse">
<stop stop-color="#258DFF"/>
<stop offset="1" stop-color="#02F6FC"/>
</linearGradient>
<linearGradient id="paint3_linear_9_3" x1="517.351" y1="314.45" x2="369.992" y2="314.378" gradientUnits="userSpaceOnUse">
<stop stop-color="#258DFF"/>
<stop offset="1" stop-color="#02F6FC"/>
</linearGradient>
<linearGradient id="paint4_linear_9_3" x1="1545.12" y1="653.543" x2="-542.046" y2="648.73" gradientUnits="userSpaceOnUse">
<stop stop-color="#258DFF"/>
<stop offset="1" stop-color="#02F6FC"/>
</linearGradient>
<linearGradient id="paint5_linear_9_3" x1="371.325" y1="585.214" x2="6.79937" y2="583.73" gradientUnits="userSpaceOnUse">
<stop stop-color="#258DFF"/>
<stop offset="1" stop-color="#02F6FC"/>
</linearGradient>
</defs>
</svg>
